<svg width="24" height="24" viewBox="0 0 24 24" fill="none" xmlns="http://www.w3.org/2000/svg">
<path fill-rule="evenodd" clip-rule="evenodd" d="M12 21C13.1819 21 14.3522 20.7672 15.4442 20.3149C16.5361 19.8626 17.5282 19.1997 18.364 18.364C19.1997 17.5282 19.8626 16.5361 20.3149 15.4442C20.7672 14.3522 21 13.1819 21 12C21 10.8181 20.7672 9.64778 20.3149 8.55585C19.8626 7.46392 19.1997 6.47177 18.364 5.63604C17.5282 4.80031 16.5361 4.13738 15.4442 3.68508C14.3522 3.23279 13.1819 3 12 3C9.61305 3 7.32387 3.94821 5.63604 5.63604C3.94821 7.32387 3 9.61305 3 12C3 14.3869 3.94821 16.6761 5.63604 18.364C7.32387 20.0518 9.61305 21 12 21ZM10.783 7.99L16.427 11.126C16.5828 11.2126 16.7126 11.3393 16.803 11.493C16.8934 11.6467 16.9411 11.8217 16.9411 12C16.9411 12.1783 16.8934 12.3533 16.803 12.507C16.7126 12.6607 16.5828 12.7874 16.427 12.874L10.783 16.01C10.6002 16.1116 10.3941 16.1636 10.1851 16.161C9.97599 16.1584 9.77123 16.1013 9.59107 15.9952C9.4109 15.8891 9.26159 15.7377 9.15791 15.5562C9.05424 15.3746 8.9998 15.1691 9 14.96V9.04C8.9998 8.83092 9.05424 8.62541 9.15791 8.44384C9.26159 8.26227 9.4109 8.11094 9.59107 8.00484C9.77123 7.89874 9.97599 7.84156 10.1851 7.83895C10.3941 7.83635 10.6002 7.88842 10.783 7.99Z" fill="white"/>
</svg>
